HIERARCHY
ROOT Hips
{
	OFFSET 0.00 0.00 0.00
	CHANNELS 6 Xposition Yposition Zposition Xrotation Yrotation Zrotation
	JOINT Spine
	{
		OFFSET 0.00000 0.84964 1.27446
		CHANNELS 3 Xrotation Yrotation Zrotation
		JOINT Spine1
		{
			OFFSET 0.00000 0.29508 1.67346
			CHANNELS 3 Xrotation Yrotation Zrotation
			JOINT Spine2
			{
				OFFSET 0.00000 0.14810 1.69281
				CHANNELS 3 Xrotation Yrotation Zrotation
				JOINT Spine3
				{
					OFFSET 0.00000 0.00000 1.69928
					CHANNELS 3 Xrotation Yrotation Zrotation
					JOINT Neck
					{
						OFFSET 0.00000 -0.63723 4.46061
						CHANNELS 3 Xrotation Yrotation Zrotation
						JOINT Head
						{
							OFFSET 0.00000 -0.40573 2.30101
							CHANNELS 3 Xrotation Yrotation Zrotation
							End Site
							{
								OFFSET 0.00000 0.00000 2.75071
							}
						}
					}
					JOINT RightShoulder
					{
						OFFSET -0.72014 -1.20022 3.88874
						CHANNELS 3 Xrotation Yrotation Zrotation
						JOINT RightArm
						{
							OFFSET -3.57668 0.00000 0.00000
							CHANNELS 3 Xrotation Yrotation Zrotation
							JOINT RightForeArm
							{
								OFFSET -5.92485 0.00000 0.00000
								CHANNELS 3 Xrotation Yrotation Zrotation
								JOINT RightHand
								{
									OFFSET -6.63013 0.00000 0.00000
									CHANNELS 3 Xrotation Yrotation Zrotation
									JOINT RightHandEnd
									{
										OFFSET -1.65321 0.00000 0.00000
										CHANNELS 3 Xrotation Yrotation Zrotation
										End Site
										{
											OFFSET -1.65321 0.00000 0.00000
										}
									}
									JOINT RightHandThumb1
									{
										OFFSET -0.66129 -1.10214 -0.44086
										CHANNELS 3 Yrotation Xrotation Zrotation
										End Site
										{
											OFFSET -1.59688 -0.42788 0.00000
										}
									}
								}
							}
						}
					}
					JOINT LeftShoulder
					{
						OFFSET 0.72014 -1.20022 3.88874
						CHANNELS 3 Xrotation Yrotation Zrotation
						JOINT LeftArm
						{
							OFFSET 3.57668 0.00000 0.00000
							CHANNELS 3 Xrotation Yrotation Zrotation
							JOINT LeftForeArm
							{
								OFFSET 5.92485 0.00000 0.00000
								CHANNELS 3 Xrotation Yrotation Zrotation
								JOINT LeftHand
								{
									OFFSET 6.63013 0.00000 0.00000
									CHANNELS 3 Xrotation Yrotation Zrotation
									JOINT LeftHandEnd
									{
										OFFSET 1.65321 0.00000 0.00000
										CHANNELS 3 Xrotation Yrotation Zrotation
										End Site
										{
											OFFSET 1.65321 0.00000 0.00000
										}
									}
									JOINT LeftHandThumb1
									{
										OFFSET 0.66129 -1.10214 -0.44086
										CHANNELS 3 Yrotation Xrotation Zrotation
										End Site
										{
											OFFSET 1.59688 -0.42788 0.00000
										}
									}
								}
							}
						}
					}
				}
			}
		}
	}
	JOINT RightUpLeg
	{
		OFFSET -2.13640 0.00000 -0.62412
		CHANNELS 3 Xrotation Yrotation Zrotation
		JOINT RightLeg
		{
			OFFSET 0.00000 0.00000 -11.49360
			CHANNELS 3 Xrotation Yrotation Zrotation
			JOINT RightFoot
			{
				OFFSET 0.00000 0.00000 -8.79036
				CHANNELS 3 Xrotation Yrotation Zrotation
				JOINT RightToeBase
				{
					OFFSET 0.00000 -3.94625 -1.43632
					CHANNELS 3 Xrotation Yrotation Zrotation
					End Site
					{
						OFFSET 0.00000 -1.72833 -0.00000
					}
				}
			}
		}
	}
	JOINT LeftUpLeg
	{
		OFFSET 2.13640 0.00000 -0.62412
		CHANNELS 3 Xrotation Yrotation Zrotation
		JOINT LeftLeg
		{
			OFFSET 0.00000 0.00000 -11.49360
			CHANNELS 3 Xrotation Yrotation Zrotation
			JOINT LeftFoot
			{
				OFFSET 0.00000 0.00000 -8.79036
				CHANNELS 3 Xrotation Yrotation Zrotation
				JOINT LeftToeBase
				{
					OFFSET 0.00000 -3.94625 -1.43632
					CHANNELS 3 Xrotation Yrotation Zrotation
					End Site
					{
						OFFSET 0.00000 -1.72833 -0.00000
					}
				}
			}
		}
	}
}
MOTION
Frames: 18
Frame Time: 0.008342
 -0.8484 -69.8282 23.6450 0.3182 -0.0818 -177.8392 0.5856 -2.8572 -0.6354 -0.0364 -0.4509 -0.4376 -4.1260 -1.4527 -1.2607 1.5516 7.7110 -2.5990 7.1827 6.2408 -6.0239 10.9012 -1.9770 -16.2764 3.7314 -2.2757 -1.2950 -9.0975 -10.8245 -11.7220 0.0000 0.0000 12.3630 -0.7424 -11.6877 2.7505 0.0000 0.0000 -0.0000 -0.0000 -0.0000 0.0000 -22.0178 1.2904 -2.2750 -2.0779 11.0389 1.7739 -0.0000 -0.0000 -9.4540 2.8682 -21.6275 15.5272 -0.0000 0.0000 -0.0000 0.0000 -0.0000 0.0000 0.6525 10.0283 -79.5824 0.5530 0.0000 0.0000 46.1661 -15.9355 74.6580 -1.7144 0.0000 -0.0000 3.5606 -3.5527 31.6432 -4.7030 0.0000 -0.0000 18.7426 33.2429 -32.7904 -12.1163 0.0000 -0.0000
 -0.8526 -69.8286 23.6453 0.3263 -0.0713 -177.8678 0.5638 -2.8732 -0.6417 -0.0319 -0.4564 -0.4387 -4.1084 -1.4616 -1.2415 1.5617 7.7269 -2.6041 7.1906 6.2619 -6.0237 10.9056 -1.9723 -16.2747 3.7350 -2.2686 -1.3017 -9.2109 -10.7556 -11.7228 0.0000 0.0000 12.3594 -0.7788 -11.7007 2.7409 -0.0000 0.0000 0.0000 0.0000 -0.0000 0.0000 -22.0412 1.3142 -2.2489 -2.1167 11.0354 1.7718 -0.0000 -0.0000 -9.4466 2.8535 -21.6002 15.5151 -0.0000 0.0000 -0.0000 -0.0000 -0.0000 0.0000 0.6527 10.0436 -79.5432 0.5501 0.0000 0.0000 46.1380 -15.9382 74.6451 -1.7268 0.0000 -0.0000 3.5628 -3.5379 31.6280 -4.6716 0.0000 -0.0000 18.6810 33.2385 -32.7378 -12.1314 0.0000 -0.0000
 -0.8582 -69.8286 23.6459 0.3694 -0.0558 -177.9030 0.5761 -2.8923 -0.6515 -0.0303 -0.4660 -0.4359 -4.0874 -1.4714 -1.2228 1.5713 7.7459 -2.6069 7.2016 6.2872 -6.0259 10.9110 -1.9619 -16.2728 3.7397 -2.2531 -1.3125 -9.3697 -10.6686 -11.7331 0.0000 0.0000 12.3682 -0.8225 -11.7102 2.7247 -0.0000 -0.0000 0.0000 -0.0000 -0.0000 0.0000 -22.0700 1.3363 -2.2182 -2.1627 11.0434 1.7681 -0.0000 -0.0000 -9.4345 2.8394 -21.5719 15.5029 0.0000 0.0000 -0.0000 0.0000 -0.0000 0.0000 0.6879 10.0649 -79.4887 0.5494 0.0000 0.0000 46.0907 -15.9471 74.6248 -1.7397 0.0000 -0.0000 3.6012 -3.5158 31.6071 -4.6344 0.0000 -0.0000 18.6011 33.2300 -32.6690 -12.1328 0.0000 -0.0000
 -0.8651 -69.8290 23.6466 0.4176 -0.0382 -177.9421 0.5867 -2.9170 -0.6625 -0.0244 -0.4749 -0.4373 -4.0653 -1.4853 -1.1974 1.5825 7.7679 -2.6142 7.2162 6.3187 -6.0276 10.9159 -1.9515 -16.2711 3.7463 -2.2396 -1.3256 -9.5732 -10.5537 -11.7499 0.0000 0.0000 12.3889 -0.8827 -11.7108 2.7057 -0.0000 -0.0000 0.0000 0.0000 -0.0000 -0.0000 -22.1017 1.3656 -2.1815 -2.2139 11.0501 1.7621 -0.0000 -0.0000 -9.4183 2.8252 -21.5396 15.4920 -0.0000 -0.0000 0.0000 0.0000 -0.0000 -0.0000 0.7261 10.0905 -79.4215 0.5527 0.0000 0.0000 46.0203 -15.9603 74.5949 -1.7526 0.0000 -0.0000 3.6406 -3.4900 31.5752 -4.5853 0.0000 -0.0000 18.4999 33.2180 -32.5807 -12.1185 0.0000 -0.0000
 -0.8732 -69.8296 23.6475 0.4790 -0.0225 -177.9810 0.6067 -2.9496 -0.6736 -0.0160 -0.4843 -0.4437 -4.0426 -1.5010 -1.1707 1.5945 7.7931 -2.6234 7.2335 6.3505 -6.0309 10.9203 -1.9376 -16.2694 3.7538 -2.2270 -1.3414 -9.8296 -10.4158 -11.7816 0.0000 0.0000 12.4321 -0.9608 -11.7008 2.6779 0.0000 -0.0000 -0.0000 0.0000 -0.0000 -0.0000 -22.1360 1.3932 -2.1484 -2.2688 11.0636 1.7632 -0.0000 -0.0000 -9.4011 2.8112 -21.5082 15.4824 0.0000 -0.0000 -0.0000 -0.0000 0.0000 -0.0000 0.7770 10.1129 -79.3479 0.5560 0.0000 0.0000 45.9249 -15.9757 74.5561 -1.7628 0.0000 -0.0000 3.6888 -3.4659 31.5356 -4.5252 0.0000 -0.0000 18.3844 33.2032 -32.4826 -12.0881 0.0000 -0.0000
 -0.8821 -69.8306 23.6486 0.5489 -0.0081 -178.0185 0.6340 -2.9855 -0.6883 -0.0071 -0.4958 -0.4477 -4.0177 -1.5174 -1.1511 1.6062 7.8184 -2.6336 7.2510 6.3839 -6.0326 10.9232 -1.9220 -16.2675 3.7611 -2.2164 -1.3594 -10.1420 -10.2548 -11.8241 0.0000 0.0000 12.4958 -1.0602 -11.6794 2.6477 -0.0000 -0.0000 0.0000 -0.0000 -0.0000 0.0000 -22.1727 1.4179 -2.1057 -2.3209 11.0836 1.7554 -0.0000 -0.0000 -9.3795 2.7983 -21.4762 15.4749 0.0000 0.0000 -0.0000 0.0000 -0.0000 0.0000 0.8357 10.1339 -79.2652 0.5621 0.0000 0.0000 45.8020 -15.9958 74.5057 -1.7706 0.0000 -0.0000 3.7403 -3.4431 31.4867 -4.4531 0.0000 -0.0000 18.2543 33.1851 -32.3735 -12.0399 0.0000 -0.0000
 -0.8918 -69.8319 23.6498 0.6245 0.0049 -178.0543 0.6653 -3.0239 -0.7032 0.0042 -0.5060 -0.4536 -3.9920 -1.5372 -1.1375 1.6182 7.8420 -2.6425 7.2677 6.4181 -6.0357 10.9242 -1.9043 -16.2653 3.7636 -2.2047 -1.3830 -10.5133 -10.0758 -11.8811 0.0000 0.0000 12.5860 -1.1845 -11.6442 2.6119 -0.0000 0.0000 0.0000 -0.0000 -0.0000 0.0000 -22.2083 1.4383 -2.0604 -2.3697 11.1134 1.7415 -0.0000 -0.0000 -9.3516 2.7872 -21.4494 15.4678 0.0000 0.0000 -0.0000 0.0000 -0.0000 0.0000 0.8990 10.1538 -79.1737 0.5734 0.0000 0.0000 45.6505 -16.0208 74.4435 -1.7761 0.0000 -0.0000 3.7931 -3.4214 31.4331 -4.3727 0.0000 -0.0000 18.1158 33.1629 -32.2593 -11.9744 0.0000 -0.0000
 -0.9020 -69.8338 23.6512 0.6962 0.0148 -178.0826 0.6922 -3.0633 -0.7229 0.0177 -0.5157 -0.4574 -3.9646 -1.5585 -1.1325 1.6270 7.8625 -2.6527 7.2865 6.4521 -6.0390 10.9208 -1.8864 -16.2626 3.7666 -2.1997 -1.4057 -10.9565 -9.8722 -11.9597 0.0000 0.0000 12.7067 -1.3348 -11.6018 2.5705 -0.0000 -0.0000 -0.0000 0.0000 -0.0000 -0.0000 -22.2431 1.4650 -2.0239 -2.4106 11.1350 1.7424 -0.0000 -0.0000 -9.3328 2.7743 -21.4187 15.4679 -0.0000 -0.0000 0.0000 0.0000 -0.0000 0.0000 0.9576 10.1713 -79.0735 0.5910 0.0000 0.0000 45.4693 -16.0539 74.3651 -1.7797 0.0000 -0.0000 3.8357 -3.4035 31.3718 -4.2837 0.0000 -0.0000 17.9734 33.1377 -32.1437 -11.8955 0.0000 -0.0000
 -0.9122 -69.8360 23.6527 0.7886 0.0190 -178.1024 0.7464 -3.1046 -0.7421 0.0302 -0.5261 -0.4629 -3.9408 -1.5776 -1.1398 1.6351 7.8779 -2.6625 7.3037 6.4813 -6.0429 10.9135 -1.8659 -16.2583 3.7645 -2.1932 -1.4298 -11.4708 -9.6593 -12.0575 0.0000 0.0000 12.8548 -1.5119 -11.5485 2.5262 0.0000 -0.0000 -0.0000 -0.0000 -0.0000 0.0000 -22.2726 1.4838 -1.9905 -2.4441 11.1619 1.7436 -0.0000 -0.0000 -9.3125 2.7622 -21.3924 15.4680 0.0000 -0.0000 -0.0000 0.0000 0.0000 0.0000 1.0389 10.1802 -78.9706 0.6113 0.0000 0.0000 45.2606 -16.0925 74.2744 -1.7808 0.0000 -0.0000 3.8973 -3.3924 31.3074 -4.1942 0.0000 -0.0000 17.8356 33.1118 -32.0341 -11.8080 0.0000 -0.0000
 -0.9225 -69.8386 23.6543 0.8755 0.0191 -178.1137 0.7975 -3.1446 -0.7636 0.0450 -0.5360 -0.4707 -3.9179 -1.5961 -1.1578 1.6406 7.8883 -2.6706 7.3186 6.5054 -6.0456 10.9027 -1.8445 -16.2528 3.7578 -2.1902 -1.4517 -12.0588 -9.4339 -12.1737 0.0000 0.0000 13.0257 -1.7171 -11.4883 2.4834 0.0000 -0.0000 -0.0000 0.0000 -0.0000 0.0000 -22.2978 1.4991 -1.9605 -2.4666 11.1879 1.7468 -0.0000 -0.0000 -9.2932 2.7500 -21.3695 15.4698 -0.0000 -0.0000 0.0000 -0.0000 -0.0000 0.0000 1.1143 10.1852 -78.8620 0.6387 0.0000 0.0000 45.0264 -16.1379 74.1693 -1.7820 0.0000 -0.0000 3.9497 -3.3863 31.2422 -4.1031 0.0000 -0.0000 17.7050 33.0845 -31.9332 -11.7166 0.0000 -0.0000
 -0.9330 -69.8418 23.6559 0.9557 0.0206 -178.1170 0.8463 -3.1807 -0.7881 0.0620 -0.5302 -0.4679 -3.8982 -1.6299 -1.1967 1.6444 7.8966 -2.6783 7.3304 6.5263 -6.0485 10.8875 -1.8220 -16.2465 3.7437 -2.1853 -1.4756 -12.7229 -9.2022 -12.3040 0.0000 0.0000 13.2161 -1.9415 -11.4249 2.4421 0.0000 -0.0000 -0.0000 -0.0000 -0.0000 0.0000 -22.3161 1.5099 -1.9369 -2.4821 11.2171 1.7559 -0.0000 -0.0000 -9.2754 2.7379 -21.3532 15.4692 0.0000 0.0000 -0.0000 -0.0000 -0.0000 0.0000 1.1828 10.1945 -78.7516 0.6764 0.0000 0.0000 44.7741 -16.1886 74.0551 -1.7869 0.0000 -0.0000 3.9946 -3.3772 31.1799 -4.0186 0.0000 -0.0000 17.5887 33.0536 -31.8445 -11.6251 0.0000 -0.0000
 -0.9428 -69.8453 23.6575 1.0407 0.0123 -178.1090 0.9077 -3.2160 -0.8110 0.0768 -0.5344 -0.4704 -3.8806 -1.6486 -1.2476 1.6449 7.8947 -2.6843 7.3395 6.5380 -6.0505 10.8686 -1.7990 -16.2382 3.7235 -2.1840 -1.4970 -13.4582 -8.9656 -12.4469 0.0000 0.0000 13.4207 -2.1811 -11.3597 2.4019 -0.0000 0.0000 0.0000 -0.0000 -0.0000 0.0000 -22.3284 1.5172 -1.9213 -2.4861 11.2389 1.7713 -0.0000 -0.0000 -9.2623 2.7251 -21.3382 15.4735 -0.0000 0.0000 -0.0000 -0.0000 -0.0000 0.0000 1.2581 10.1887 -78.6481 0.7117 0.0000 0.0000 44.5071 -16.2387 73.9337 -1.7926 0.0000 -0.0000 4.0442 -3.3798 31.1195 -3.9410 0.0000 -0.0000 17.4905 33.0275 -31.7726 -11.5426 0.0000 -0.0000
 -0.9526 -69.8496 23.6590 1.0976 0.0045 -178.0932 0.9446 -3.2432 -0.8337 0.0959 -0.5389 -0.4824 -3.8674 -1.6668 -1.2983 1.6445 7.8891 -2.6926 7.3445 6.5446 -6.0526 10.8469 -1.7773 -16.2275 3.6955 -2.1894 -1.5169 -14.2553 -8.7198 -12.5951 0.0000 0.0000 13.6323 -2.4259 -11.2986 2.3660 0.0000 -0.0000 -0.0000 -0.0000 -0.0000 0.0000 -22.3360 1.5225 -1.9114 -2.4820 11.2568 1.7924 -0.0000 -0.0000 -9.2522 2.7117 -21.3285 15.4758 0.0000 -0.0000 -0.0000 0.0000 0.0000 0.0000 1.3026 10.1909 -78.5260 0.7659 0.0000 0.0000 44.2194 -16.3051 73.7904 -1.8030 0.0000 -0.0000 4.0621 -3.3814 31.0574 -3.8662 0.0000 -0.0000 17.4038 33.0022 -31.7087 -11.4706 0.0000 -0.0000
 -0.9620 -69.8538 23.6605 1.1744 -0.0053 -178.0706 1.0133 -3.2704 -0.8590 0.1119 -0.5307 -0.4803 -3.8608 -1.6913 -1.3751 1.6396 7.8778 -2.6959 7.3474 6.5454 -6.0551 10.8229 -1.7545 -16.2148 3.6642 -2.1914 -1.5337 -15.0970 -8.4757 -12.7440 0.0000 0.0000 13.8425 -2.6657 -11.2393 2.3350 -0.0000 -0.0000 0.0000 -0.0000 -0.0000 0.0000 -22.3364 1.5222 -1.9100 -2.4725 11.2744 1.8213 -0.0000 -0.0000 -9.2444 2.6984 -21.3234 15.4797 0.0000 0.0000 -0.0000 -0.0000 0.0000 0.0000 1.3699 10.1879 -78.4176 0.8178 0.0000 0.0000 43.9332 -16.3666 73.6521 -1.8166 0.0000 -0.0000 4.1072 -3.3829 31.0026 -3.8121 0.0000 -0.0000 17.3418 32.9803 -31.6624 -11.4122 0.0000 -0.0000
 -0.9713 -69.8583 23.6619 1.2457 -0.0150 -178.0429 1.0855 -3.2906 -0.8795 0.1273 -0.5298 -0.4930 -3.8609 -1.7077 -1.4469 1.6328 7.8625 -2.6998 7.3482 6.5393 -6.0578 10.7982 -1.7313 -16.2015 3.6305 -2.1982 -1.5468 -15.9615 -8.2277 -12.8865 0.0000 0.0000 14.0453 -2.8869 -11.1819 2.3085 -0.0000 -0.0000 0.0000 -0.0000 -0.0000 0.0000 -22.3325 1.5202 -1.9195 -2.4590 11.2873 1.8612 -0.0000 -0.0000 -9.2400 2.6850 -21.3219 15.4844 0.0000 0.0000 -0.0000 -0.0000 0.0000 0.0000 1.4310 10.1902 -78.2922 0.8829 0.0000 0.0000 43.6365 -16.4433 73.4969 -1.8324 0.0000 -0.0000 4.1498 -3.3822 30.9509 -3.7714 0.0000 -0.0000 17.2975 32.9621 -31.6271 -11.3689 0.0000 -0.0000
 -0.9805 -69.8632 23.6632 1.2993 -0.0260 -178.0132 1.1453 -3.3102 -0.9025 0.1443 -0.5205 -0.4923 -3.8669 -1.7285 -1.5339 1.6249 7.8459 -2.7052 7.3458 6.5287 -6.0596 10.7736 -1.7098 -16.1870 3.5947 -2.2115 -1.5559 -16.8149 -7.9772 -13.0097 0.0000 0.0000 14.2308 -3.0788 -11.1230 2.2891 0.0000 -0.0000 -0.0000 -0.0000 0.0000 -0.0000 -22.3256 1.5151 -1.9294 -2.4427 11.2983 1.9007 -0.0000 -0.0000 -9.2352 2.6720 -21.3247 15.4903 -0.0000 -0.0000 0.0000 -0.0000 -0.0000 0.0000 1.4738 10.1901 -78.1826 0.9439 0.0000 0.0000 43.3515 -16.5097 73.3520 -1.8501 0.0000 -0.0000 4.1777 -3.3802 30.9007 -3.7441 0.0000 -0.0000 17.2677 32.9497 -31.5971 -11.3410 0.0000 -0.0000
 -0.9897 -69.8685 23.6644 1.3264 -0.0372 -177.9797 1.1804 -3.3224 -0.9230 0.1627 -0.5217 -0.5044 -3.8740 -1.7419 -1.6123 1.6157 7.8289 -2.7132 7.3400 6.5124 -6.0616 10.7505 -1.6897 -16.1732 3.5602 -2.2398 -1.5658 -17.6230 -7.7191 -13.0989 0.0000 0.0000 14.3937 -3.2298 -11.0606 2.2741 -0.0000 -0.0000 0.0000 -0.0000 -0.0000 0.0000 -22.3173 1.5088 -1.9400 -2.4247 11.3066 1.9362 -0.0000 -0.0000 -9.2276 2.6595 -21.3323 15.4963 -0.0000 -0.0000 -0.0000 -0.0000 0.0000 0.0000 1.4892 10.1923 -78.0750 1.0071 0.0000 0.0000 43.0726 -16.5778 73.2065 -1.8665 0.0000 -0.0000 4.1819 -3.3749 30.8500 -3.7310 0.0000 -0.0000 17.2535 32.9422 -31.5728 -11.3272 0.0000 -0.0000
 -0.9991 -69.8734 23.6655 1.3824 -0.0474 -177.9489 1.2576 -3.3417 -0.9447 0.1775 -0.5055 -0.5022 -3.8917 -1.7638 -1.7059 1.6029 7.8101 -2.7133 7.3363 6.4938 -6.0669 10.7286 -1.6678 -16.1619 3.5334 -2.2654 -1.5700 -18.3526 -7.4660 -13.1663 0.0000 0.0000 14.5359 -3.3272 -10.9899 2.2633 -0.0000 0.0000 -0.0000 -0.0000 -0.0000 0.0000 -22.3065 1.5005 -1.9671 -2.4111 11.3184 1.9895 -0.0000 -0.0000 -9.2243 2.6482 -21.3421 15.5062 0.0000 -0.0000 -0.0000 0.0000 0.0000 0.0000 1.5348 10.1967 -77.9594 1.0722 0.0000 0.0000 42.7980 -16.6525 73.0596 -1.8771 0.0000 -0.0000 4.2248 -3.3648 30.8026 -3.7377 0.0000 -0.0000 17.2513 32.9412 -31.5500 -11.3228 0.0000 -0.0000
